# Blender 3.6.0
# www.blender.org
mtllib mine_placer.mtl
o Cylinder.001
v 0.000000 -0.093180 0.000000
v 0.000000 0.093180 0.000000
v -0.314557 -0.093180 -0.314557
v -0.353553 0.093180 -0.353553
v -0.179685 -0.093180 -0.406947
v -0.201961 0.093180 -0.457397
v -0.020545 -0.093180 -0.444376
v -0.023092 0.093180 -0.499466
v 0.141370 -0.093180 -0.421790
v 0.158896 0.093180 -0.474080
v 0.284191 -0.093180 -0.342239
v 0.319423 0.093180 -0.384667
v 0.388631 -0.093180 -0.216466
v 0.436811 0.093180 -0.243302
v 0.440585 -0.093180 -0.061459
v 0.495205 0.093180 -0.069078
v 0.433034 -0.093180 0.101849
v 0.486719 0.093180 0.114475
v 0.367001 -0.093180 0.251401
v 0.412499 0.093180 0.282568
v 0.251401 -0.093180 0.367001
v 0.282568 0.093180 0.412499
v 0.101849 -0.093180 0.433034
v 0.114475 0.093180 0.486719
v -0.061459 -0.093180 0.440585
v -0.069078 0.093180 0.495205
v -0.216466 -0.093180 0.388631
v -0.243302 0.093180 0.436811
v -0.342239 -0.093180 0.284191
v -0.384667 0.093180 0.319423
v -0.421790 -0.093180 0.141370
v -0.474080 0.093180 0.158896
v -0.444376 -0.093180 -0.020545
v -0.499466 0.093180 -0.023092
v -0.406947 -0.093180 -0.179685
v -0.457397 0.093180 -0.201961
v -0.188699 -0.093180 -0.188699
v -0.107791 -0.093180 -0.244123
v -0.012325 -0.093180 -0.266576
v 0.084806 -0.093180 -0.253027
v 0.170483 -0.093180 -0.205305
v 0.233136 -0.093180 -0.129856
v 0.264302 -0.093180 -0.036869
v 0.259773 -0.093180 0.061098
v 0.220160 -0.093180 0.150813
v 0.150813 -0.093180 0.220160
v 0.061098 -0.093180 0.259773
v -0.036869 -0.093180 0.264302
v -0.129856 -0.093180 0.233136
v -0.205305 -0.093180 0.170483
v -0.253027 -0.093180 0.084806
v -0.266576 -0.093180 -0.012325
v -0.244123 -0.093180 -0.107791
v -0.353553 -0.093180 -0.353553
v -0.201961 -0.093180 -0.457397
v -0.023092 -0.093180 -0.499466
v 0.158896 -0.093180 -0.474080
v 0.319423 -0.093180 -0.384667
v 0.436811 -0.093180 -0.243302
v 0.495205 -0.093180 -0.069078
v 0.486719 -0.093180 0.114475
v 0.412499 -0.093180 0.282568
v 0.282568 -0.093180 0.412499
v 0.114475 -0.093180 0.486719
v -0.069078 -0.093180 0.495205
v -0.243302 -0.093180 0.436811
v -0.384667 -0.093180 0.319423
v -0.474080 -0.093180 0.158896
v -0.499466 -0.093180 -0.023092
v -0.457397 -0.093180 -0.201961
v -0.143704 -0.281848 -0.398782
v -0.019894 -0.281722 -0.424890
v 0.105796 -0.281848 -0.410317
v 0.404280 -0.281848 0.125564
v 0.350502 -0.281722 0.240100
v 0.263128 -0.281848 0.331621
v -0.344392 -0.281848 0.246876
v -0.403385 -0.281722 0.134937
v -0.423765 -0.281848 0.010057
v -0.214628 -0.406873 -0.559410
v -0.028004 -0.406747 -0.600291
v 0.161596 -0.406873 -0.576804
v 0.575205 -0.406873 0.165765
v 0.495363 -0.406747 0.339331
v 0.362360 -0.406873 0.476481
v -0.479478 -0.406873 0.359050
v -0.569871 -0.406747 0.190738
v -0.599167 -0.406873 0.001947
v 0.332979 -0.433463 0.143353
v 0.302873 -0.433393 0.207473
v 0.253959 -0.433463 0.258709
v 0.428667 -0.503455 0.165859
v 0.383969 -0.503385 0.263025
v 0.309511 -0.503455 0.339805
v -0.078949 -0.424570 -0.368321
v -0.017875 -0.424508 -0.381200
v 0.044128 -0.424570 -0.374012
v -0.113936 -0.486245 -0.447558
v -0.021875 -0.486183 -0.467725
v 0.071654 -0.486245 -0.456138
v -0.302748 -0.445470 0.178658
v -0.337439 -0.445396 0.112834
v -0.349423 -0.445470 0.039400
v -0.382184 -0.518990 0.244621
v -0.435339 -0.518916 0.145647
v -0.452566 -0.518990 0.034631
vn -0.0000 -1.0000 -0.0000
vn -0.0000 1.0000 -0.0000
vn -0.7071 -0.0000 -0.7071
vn -0.4039 -0.0000 -0.9148
vn -0.0462 -0.0000 -0.9989
vn 0.3178 -0.0000 -0.9482
vn 0.6388 -0.0000 -0.7693
vn 0.8736 -0.0000 -0.4866
vn 0.9904 -0.0000 -0.1382
vn 0.9734 -0.0000 0.2290
vn 0.8250 -0.0000 0.5651
vn 0.5651 -0.0000 0.8250
vn 0.2290 -0.0000 0.9734
vn -0.1382 -0.0000 0.9904
vn -0.4866 -0.0000 0.8736
vn -0.7693 -0.0000 0.6388
vn -0.9482 -0.0000 0.3178
vn -0.9989 -0.0000 -0.0462
vn -0.9148 -0.0000 -0.4039
vn 0.0743 -0.1518 -0.9856
vn 0.1223 -0.1370 -0.9830
vn 0.1344 -0.1248 -0.9830
vn -0.8922 -0.1518 0.4253
vn -0.8520 -0.1785 0.4921
vn -0.9037 -0.1551 0.3990
vn 0.0351 -0.6483 0.7606
vn -0.0933 -0.6397 0.7630
vn -0.1057 -0.6437 0.7580
vn 0.1982 -0.1519 -0.9683
vn 0.1399 -0.1528 -0.9783
vn 0.2262 -0.1553 -0.9616
vn 0.1632 -0.6399 0.7509
vn 0.0354 -0.6435 0.7646
vn -0.6290 -0.6471 -0.4309
vn -0.5533 -0.6386 -0.5349
vn -0.5418 -0.6426 -0.5418
vn -0.8008 -0.2469 0.5457
vn 0.8932 -0.1800 0.4120
vn 0.8477 -0.2469 0.4695
vn 0.8653 -0.2160 0.4523
vn -0.8617 -0.1528 0.4838
vn -0.8745 -0.1662 0.4556
vn -0.8732 -0.1593 0.4606
vn -0.7710 0.3557 -0.5282
vn -0.8472 0.3517 -0.3982
vn 0.8726 0.3911 -0.2925
vn 0.8160 0.3868 -0.4296
vn -0.5880 -0.7845 0.1971
vn -0.5514 -0.7801 0.2955
vn -0.8466 0.4502 0.2838
vn -0.7884 0.4420 0.4280
vn -0.7819 0.4460 0.4355
vn -0.8869 0.4422 0.1335
vn -0.8488 0.4456 0.2844
vn -0.8313 -0.1519 0.5346
vn 0.7371 0.4491 0.5049
vn 0.8171 0.4409 0.3714
vn 0.8192 0.4450 0.3617
vn 0.6415 0.4409 0.6277
vn 0.7390 0.4445 0.5062
vn 0.9272 -0.1541 0.3415
vn -0.0412 0.4502 -0.8920
vn -0.1959 0.4422 -0.8753
vn -0.2049 0.4462 -0.8712
vn 0.7219 -0.6483 -0.2421
vn 0.6777 -0.6397 -0.3626
vn 0.7258 -0.6435 -0.2432
vn 0.1143 0.4420 -0.8897
vn -0.0414 0.4456 -0.8943
vn 0.7592 -0.6399 -0.1190
vn 0.7578 -0.6439 -0.1057
vn -0.6986 -0.6386 -0.3227
vn -0.6323 -0.6423 -0.4332
vn 0.6533 -0.1541 0.7412
vn 0.6904 -0.1385 0.7101
vn 0.6309 -0.1575 0.7597
vn -0.5319 -0.8101 -0.2467
vn -0.4796 -0.8136 -0.3286
vn -0.4785 -0.8146 -0.3278
vn -0.4222 -0.8101 -0.4069
vn -0.4215 -0.8091 -0.4095
vn 0.1089 -0.1662 -0.9801
vn 0.4802 -0.8132 0.3289
vn 0.4221 -0.8092 0.4086
vn -0.6773 0.3517 -0.6462
vn 0.5335 -0.8092 0.2460
vn 0.1237 -0.8101 0.5731
vn 0.0269 -0.8136 0.5808
vn 0.0268 -0.8146 0.5794
vn -0.0703 -0.8101 0.5821
vn -0.0728 -0.8091 0.5832
vn -0.0237 -0.8580 -0.5130
vn -0.1105 -0.8548 -0.5071
vn 0.0442 0.2929 0.9551
vn 0.1972 0.2894 0.9367
vn 0.0632 -0.8548 -0.5151
vn -0.1100 0.2894 0.9509
vn 0.5174 -0.8101 -0.2758
vn 0.5512 -0.8136 -0.1848
vn 0.5500 -0.8146 -0.1843
vn 0.5791 -0.8101 -0.0917
vn 0.5808 -0.8091 -0.0896
vn -0.6181 -0.7801 0.0964
vn 0.9101 0.3868 -0.1489
vn 0.1295 -0.1177 -0.9846
vn 0.6966 -0.1177 0.7077
vn 0.0456 -0.1551 -0.9868
vn -0.8203 -0.2154 0.5299
vn 0.1141 -0.1593 -0.9806
vn 0.1752 -0.6439 0.7448
vn -0.8863 0.4462 0.1236
vn -0.8150 -0.1553 0.5583
vn 0.6332 0.4450 0.6332
vn 0.9363 -0.1575 0.3138
vn 0.6686 -0.6437 -0.3724
vn 0.1237 0.4460 -0.8864
vn -0.7009 -0.6426 -0.3095
vn 0.6999 -0.1254 0.7031
vn -0.5342 -0.8091 -0.2451
vn 0.1263 -0.8091 0.5740
vn 0.5175 -0.8091 -0.2785
vt 0.750000 0.250000
vt 0.750000 0.378093
vt 0.796273 0.369443
vt 0.250000 0.250000
vt 0.336698 0.473793
vt 0.250000 0.490000
vt 1.000000 1.000000
vt 0.941176 0.500000
vt 1.000000 0.500000
vt 0.836296 0.344662
vt 0.411687 0.427362
vt 0.941176 1.000000
vt 0.882353 0.500000
vt 0.864664 0.307096
vt 0.464839 0.356977
vt 0.882353 1.000000
vt 0.823529 0.500000
vt 0.877547 0.261819
vt 0.488976 0.272144
vt 0.823529 1.000000
vt 0.764706 0.500000
vt 0.873203 0.214946
vt 0.480838 0.184321
vt 0.764706 1.000000
vt 0.705882 0.500000
vt 0.852221 0.172807
vt 0.441524 0.105368
vt 0.705882 1.000000
vt 0.647059 0.500000
vt 0.817432 0.141093
vt 0.376344 0.045948
vt 0.647059 1.000000
vt 0.588235 0.500000
vt 0.773537 0.124088
vt 0.294100 0.014086
vt 0.588235 1.000000
vt 0.529412 0.500000
vt 0.726463 0.124088
vt 0.205900 0.014086
vt 0.529412 1.000000
vt 0.470588 0.500000
vt 0.682568 0.141093
vt 0.123656 0.045948
vt 0.470588 1.000000
vt 0.411765 0.500000
vt 0.647779 0.172807
vt 0.058476 0.105368
vt 0.411765 1.000000
vt 0.352941 0.500000
vt 0.626797 0.214946
vt 0.019162 0.184321
vt 0.352941 1.000000
vt 0.294118 0.500000
vt 0.622453 0.261819
vt 0.011024 0.272144
vt 0.294118 1.000000
vt 0.235294 0.500000
vt 0.635336 0.307096
vt 0.035161 0.356977
vt 0.235294 1.000000
vt 0.176471 0.500000
vt 0.663704 0.344662
vt 0.088313 0.427362
vt 0.176471 1.000000
vt 0.117647 0.500000
vt 0.703727 0.369443
vt 0.163302 0.473793
vt 0.117647 1.000000
vt 0.058824 0.500000
vt 0.058824 1.000000
vt 0.000000 0.500000
vt 0.827135 0.449109
vt 0.606147 0.407799
vt 0.962617 0.269702
vt 0.955377 0.191565
vt 0.920399 0.121320
vt 0.862408 0.068455
vt 0.637592 0.068455
vt 0.579601 0.121320
vt 0.544623 0.191565
vt 0.537383 0.269702
vt 0.672865 0.449109
vt 0.750000 0.463528
vt 0.750000 0.490000
vt 0.836698 0.473793
vt 0.911687 0.427362
vt 0.893853 0.407799
vt 0.964839 0.356977
vt 0.941143 0.345178
vt 0.988976 0.272144
vt 0.980838 0.184321
vt 0.941524 0.105368
vt 0.876344 0.045948
vt 0.789236 0.040107
vt 0.794100 0.014086
vt 0.705900 0.014086
vt 0.710764 0.040107
vt 0.623656 0.045948
vt 0.558476 0.105368
vt 0.519162 0.184321
vt 0.511024 0.272144
vt 0.535161 0.356977
vt 0.558857 0.345178
vt 0.588313 0.427362
vt 0.663302 0.473793
vt 0.000000 1.000000
s 1
f 1/1/1 37/2/1 38/3/1
f 2/4/2 6/5/2 4/6/2
f 4/7/3 55/8/4 54/9/3
f 1/1/1 38/3/1 39/10/1
f 2/4/2 8/11/2 6/5/2
f 6/12/4 56/13/5 55/8/4
f 1/1/1 39/10/1 40/14/1
f 2/4/2 10/15/2 8/11/2
f 8/16/5 57/17/6 56/13/5
f 1/1/1 40/14/1 41/18/1
f 2/4/2 12/19/2 10/15/2
f 10/20/6 58/21/7 57/17/6
f 1/1/1 41/18/1 42/22/1
f 2/4/2 14/23/2 12/19/2
f 12/24/7 59/25/8 58/21/7
f 1/1/1 42/22/1 43/26/1
f 2/4/2 16/27/2 14/23/2
f 14/28/8 60/29/9 59/25/8
f 1/1/1 43/26/1 44/30/1
f 2/4/2 18/31/2 16/27/2
f 16/32/9 61/33/10 60/29/9
f 1/1/1 44/30/1 45/34/1
f 2/4/2 20/35/2 18/31/2
f 18/36/10 62/37/11 61/33/10
f 1/1/1 45/34/1 46/38/1
f 2/4/2 22/39/2 20/35/2
f 20/40/11 63/41/12 62/37/11
f 1/1/1 46/38/1 47/42/1
f 2/4/2 24/43/2 22/39/2
f 22/44/12 64/45/13 63/41/12
f 1/1/1 47/42/1 48/46/1
f 2/4/2 26/47/2 24/43/2
f 24/48/13 65/49/14 64/45/13
f 1/1/1 48/46/1 49/50/1
f 2/4/2 28/51/2 26/47/2
f 26/52/14 66/53/15 65/49/14
f 1/1/1 49/50/1 50/54/1
f 2/4/2 30/55/2 28/51/2
f 28/56/15 67/57/16 66/53/15
f 1/1/1 50/54/1 51/58/1
f 2/4/2 32/59/2 30/55/2
f 30/60/16 68/61/17 67/57/16
f 1/1/1 51/58/1 52/62/1
f 2/4/2 34/63/2 32/59/2
f 32/64/17 69/65/18 68/61/17
f 1/1/1 52/62/1 53/66/1
f 2/4/2 36/67/2 34/63/2
f 34/68/18 70/69/19 69/65/18
f 1/1/1 53/66/1 37/2/1
f 2/4/2 4/6/2 36/67/2
f 36/70/19 54/71/3 70/69/19
f 37/2/1 5/72/1 38/3/1
f 33/73/20 79/62/21 88/73/22
f 5/72/23 71/3/24 38/3/25
f 40/14/1 11/74/1 41/18/1
f 41/18/1 13/75/1 42/22/1
f 42/22/1 15/76/1 43/26/1
f 43/26/1 17/77/1 44/30/1
f 39/10/26 73/14/27 40/14/28
f 17/77/29 74/30/30 44/30/31
f 46/38/1 23/78/1 47/42/1
f 47/42/1 25/79/1 48/46/1
f 48/46/1 27/80/1 49/50/1
f 49/50/1 29/81/1 50/54/1
f 39/10/26 71/3/32 72/10/33
f 45/34/34 76/38/35 46/38/36
f 53/66/1 33/73/1 35/82/1
f 37/2/1 35/82/1 3/83/1
f 5/72/1 54/84/1 55/85/1
f 5/72/1 56/86/1 7/87/1
f 7/87/1 57/88/1 9/89/1
f 9/89/1 58/90/1 11/74/1
f 11/74/1 59/91/1 13/75/1
f 13/75/1 60/92/1 15/76/1
f 15/76/1 61/93/1 17/77/1
f 19/94/1 61/93/1 62/95/1
f 19/94/1 63/96/1 21/97/1
f 21/97/1 64/98/1 23/78/1
f 23/78/1 65/99/1 25/79/1
f 25/79/1 66/100/1 27/80/1
f 27/80/1 67/101/1 29/81/1
f 29/81/1 68/102/1 31/103/1
f 31/103/1 69/104/1 33/73/1
f 35/82/1 69/104/1 70/105/1
f 35/82/1 54/84/1 3/83/1
f 71/3/24 98/72/37 95/3/37
f 73/14/38 100/89/39 82/89/40
f 76/38/41 94/97/42 85/97/43
f 75/34/44 89/30/45 90/34/44
f 78/58/46 101/54/47 102/58/46
f 87/103/48 104/81/49 86/81/49
f 31/103/50 86/81/51 29/81/52
f 31/103/50 88/73/53 87/103/54
f 21/97/55 76/38/41 85/97/43
f 19/94/56 83/77/57 17/77/58
f 19/94/56 85/97/59 84/94/60
f 9/89/61 73/14/38 82/89/40
f 7/87/62 80/72/63 5/72/64
f 51/58/65 77/54/66 78/58/67
f 7/87/62 82/89/68 81/87/69
f 51/58/65 79/62/70 52/62/71
f 45/34/34 74/30/72 75/34/73
f 29/81/74 77/54/75 50/54/76
f 89/30/77 93/94/78 90/34/79
f 91/38/80 93/94/78 94/97/81
f 74/30/30 92/77/82 89/30/82
f 84/94/83 94/97/84 93/94/83
f 75/34/44 91/38/85 76/38/85
f 84/94/83 92/77/86 83/77/86
f 95/3/87 99/87/88 96/10/89
f 97/14/90 99/87/88 100/89/91
f 81/87/92 98/72/93 80/72/93
f 72/10/94 95/3/95 96/10/94
f 81/87/92 100/89/96 99/87/92
f 72/10/94 97/14/97 73/14/97
f 101/54/98 105/103/99 102/58/100
f 103/62/101 105/103/99 106/73/102
f 87/103/48 106/73/103 105/103/48
f 78/58/46 103/62/104 79/62/104
f 79/62/21 106/73/105 88/73/22
f 77/54/75 104/81/106 101/54/106
f 4/7/3 6/12/4 55/8/4
f 6/12/4 8/16/5 56/13/5
f 8/16/5 10/20/6 57/17/6
f 10/20/6 12/24/7 58/21/7
f 12/24/7 14/28/8 59/25/8
f 14/28/8 16/32/9 60/29/9
f 16/32/9 18/36/10 61/33/10
f 18/36/10 20/40/11 62/37/11
f 20/40/11 22/44/12 63/41/12
f 22/44/12 24/48/13 64/45/13
f 24/48/13 26/52/14 65/49/14
f 26/52/14 28/56/15 66/53/15
f 28/56/15 30/60/16 67/57/16
f 30/60/16 32/64/17 68/61/17
f 32/64/17 34/68/18 69/65/18
f 34/68/18 36/70/19 70/69/19
f 36/70/19 4/106/3 54/71/3
f 37/2/1 3/83/1 5/72/1
f 33/73/20 52/62/107 79/62/21
f 5/72/23 80/72/108 71/3/24
f 40/14/1 9/89/1 11/74/1
f 41/18/1 11/74/1 13/75/1
f 42/22/1 13/75/1 15/76/1
f 43/26/1 15/76/1 17/77/1
f 39/10/26 72/10/33 73/14/27
f 17/77/29 83/77/109 74/30/30
f 46/38/1 21/97/1 23/78/1
f 47/42/1 23/78/1 25/79/1
f 48/46/1 25/79/1 27/80/1
f 49/50/1 27/80/1 29/81/1
f 39/10/26 38/3/110 71/3/32
f 45/34/34 75/34/73 76/38/35
f 53/66/1 52/62/1 33/73/1
f 37/2/1 53/66/1 35/82/1
f 5/72/1 3/83/1 54/84/1
f 5/72/1 55/85/1 56/86/1
f 7/87/1 56/86/1 57/88/1
f 9/89/1 57/88/1 58/90/1
f 11/74/1 58/90/1 59/91/1
f 13/75/1 59/91/1 60/92/1
f 15/76/1 60/92/1 61/93/1
f 19/94/1 17/77/1 61/93/1
f 19/94/1 62/95/1 63/96/1
f 21/97/1 63/96/1 64/98/1
f 23/78/1 64/98/1 65/99/1
f 25/79/1 65/99/1 66/100/1
f 27/80/1 66/100/1 67/101/1
f 29/81/1 67/101/1 68/102/1
f 31/103/1 68/102/1 69/104/1
f 35/82/1 33/73/1 69/104/1
f 35/82/1 70/105/1 54/84/1
f 71/3/24 80/72/108 98/72/37
f 73/14/38 97/14/39 100/89/39
f 76/38/41 91/38/42 94/97/42
f 75/34/44 74/30/45 89/30/45
f 78/58/46 77/54/47 101/54/47
f 87/103/48 105/103/48 104/81/49
f 31/103/50 87/103/54 86/81/51
f 31/103/50 33/73/111 88/73/53
f 21/97/55 46/38/112 76/38/41
f 19/94/56 84/94/60 83/77/57
f 19/94/56 21/97/113 85/97/59
f 9/89/61 40/14/114 73/14/38
f 7/87/62 81/87/69 80/72/63
f 51/58/65 50/54/115 77/54/66
f 7/87/62 9/89/116 82/89/68
f 51/58/65 78/58/67 79/62/70
f 45/34/34 44/30/117 74/30/72
f 29/81/74 86/81/118 77/54/75
f 89/30/77 92/77/119 93/94/78
f 91/38/80 90/34/79 93/94/78
f 74/30/30 83/77/109 92/77/82
f 84/94/83 85/97/84 94/97/84
f 75/34/44 90/34/44 91/38/85
f 84/94/83 93/94/83 92/77/86
f 95/3/87 98/72/120 99/87/88
f 97/14/90 96/10/89 99/87/88
f 81/87/92 99/87/92 98/72/93
f 72/10/94 71/3/95 95/3/95
f 81/87/92 82/89/96 100/89/96
f 72/10/94 96/10/94 97/14/97
f 101/54/98 104/81/121 105/103/99
f 103/62/101 102/58/100 105/103/99
f 87/103/48 88/73/103 106/73/103
f 78/58/46 102/58/46 103/62/104
f 79/62/21 103/62/105 106/73/105
f 77/54/75 86/81/118 104/81/106
