# Blender 3.6.0
# www.blender.org
mtllib launcher.mtl
o Cylinder
v -0.000000 0.153195 -1.022720
v 0.000000 0.191379 1.022720
v 0.076597 0.132670 -1.022720
v 0.095690 0.165739 1.022720
v 0.132670 0.076597 -1.022720
v 0.165740 0.095690 1.022720
v 0.153195 0.000000 -1.022720
v 0.191380 -0.000000 1.022720
v 0.132670 -0.076597 -1.022720
v 0.165740 -0.095690 1.022720
v 0.076597 -0.132670 -1.022720
v 0.095690 -0.165740 1.022720
v -0.000000 -0.153194 -1.022720
v 0.000000 -0.191380 1.022720
v -0.076597 -0.132670 -1.022720
v -0.095690 -0.165740 1.022720
v -0.132670 -0.076597 -1.022720
v -0.165740 -0.095690 1.022720
v -0.153195 0.000000 -1.022720
v -0.191380 -0.000000 1.022720
v -0.132670 0.076597 -1.022720
v -0.165740 0.095690 1.022720
v -0.076597 0.132670 -1.022720
v -0.095690 0.165739 1.022720
v 0.124058 0.214875 1.022720
v 0.000000 0.248116 1.022720
v 0.214875 0.124058 1.022720
v 0.248116 -0.000000 1.022720
v 0.214875 -0.124058 1.022720
v 0.124058 -0.214875 1.022720
v 0.000000 -0.248116 1.022720
v -0.124058 -0.214875 1.022720
v -0.214875 -0.124058 1.022720
v -0.248116 -0.000000 1.022720
v -0.214875 0.124058 1.022720
v -0.124058 0.214875 1.022720
v 0.095690 0.165740 0.024329
v -0.000000 0.191380 0.024329
v 0.165739 0.095690 0.024329
v 0.191379 -0.000000 0.024329
v 0.165739 -0.095690 0.024329
v 0.095690 -0.165740 0.024329
v -0.000000 -0.191380 0.024329
v -0.095690 -0.165740 0.024329
v -0.165740 -0.095690 0.024329
v -0.191380 -0.000000 0.024329
v -0.165740 0.095690 0.024329
v -0.095690 0.165740 0.024329
v 0.000000 0.212774 -1.022720
v 0.106387 0.184268 -1.022720
v 0.184268 0.106387 -1.022720
v 0.212774 0.000000 -1.022720
v 0.184268 -0.106387 -1.022720
v 0.106387 -0.184268 -1.022720
v 0.000000 -0.212774 -1.022720
v -0.106387 -0.184268 -1.022720
v -0.184268 -0.106387 -1.022720
v -0.212774 0.000000 -1.022720
v -0.184268 0.106387 -1.022720
v -0.106387 0.184268 -1.022720
v -0.000000 0.209856 -0.879308
v 0.104969 0.181709 -0.879399
v 0.181694 0.104901 -0.879251
v 0.209856 0.000000 -0.879308
v 0.181777 -0.104938 -0.879377
v 0.104956 -0.181797 -0.879143
v -0.000000 -0.209856 -0.879308
v -0.104934 -0.181751 -0.879429
v -0.181733 -0.104932 -0.879141
v -0.209856 0.000000 -0.879308
v -0.181783 0.104894 -0.879330
v -0.104950 0.181750 -0.879270
v 0.003403 -0.108397 -0.879197
v 0.108404 -0.003402 -0.879317
v -0.108359 0.003502 -0.879494
v -0.003407 0.108426 -0.879042
v 0.143327 0.143298 -0.879298
v 0.143287 -0.143348 -0.879203
v -0.143323 -0.143271 -0.879386
v -0.143398 0.143351 -0.879409
v -0.050702 -0.145076 -0.879186
v 0.054175 -0.145030 -0.879446
v -0.145058 -0.050788 -0.879155
v -0.052540 -0.052413 -0.879102
v -0.145106 0.054282 -0.879366
v 0.055921 -0.055899 -0.879329
v 0.145115 -0.054159 -0.879104
v -0.055930 0.055824 -0.879074
v 0.052505 0.052483 -0.879545
v -0.054114 0.145064 -0.879541
v 0.145025 0.050766 -0.879503
v 0.050754 0.145063 -0.879273
v 0.097967 0.097891 -0.879388
v -0.099633 0.099653 -0.879563
v 0.099664 -0.099631 -0.879553
v -0.098009 -0.097888 -0.879220
v -0.181601 -0.104502 -0.595332
v -0.209723 0.000430 -0.595498
v -0.181650 0.105324 -0.595520
v -0.050569 -0.144646 -0.595377
v 0.003536 -0.107967 -0.595388
v -0.052407 -0.051983 -0.595292
v 0.056053 -0.055469 -0.595520
v 0.108536 -0.002972 -0.595508
v -0.055797 0.056254 -0.595264
v -0.003274 0.108856 -0.595232
v 0.052638 0.052913 -0.595735
v -0.053981 0.145494 -0.595732
v 0.054308 -0.144600 -0.595637
v -0.144925 -0.050358 -0.595345
v -0.108227 0.003932 -0.595684
v -0.144973 0.054713 -0.595557
v 0.145247 -0.053729 -0.595294
v 0.145158 0.051196 -0.595693
v 0.050886 0.145493 -0.595464
v 0.000170 0.000471 -0.595539
v 0.000000 0.235883 0.314704
v 0.117941 0.204280 0.314704
v 0.204280 0.117941 0.314704
v 0.235883 -0.000000 0.314704
v 0.204280 -0.117941 0.314704
v 0.117941 -0.204280 0.314704
v 0.000000 -0.235883 0.314704
v -0.117941 -0.204280 0.314704
v -0.204280 -0.117941 0.314704
v -0.235883 -0.000000 0.314704
v -0.204280 0.117941 0.314704
v -0.117941 0.204280 0.314704
v 0.110638 0.191630 -0.530725
v 0.191630 0.110638 -0.530725
v 0.221275 0.000000 -0.530725
v 0.191630 -0.110638 -0.530725
v 0.110638 -0.191630 -0.530725
v 0.000000 -0.221275 -0.530725
v -0.110638 -0.191630 -0.530725
v -0.191630 -0.110638 -0.530725
v -0.221275 0.000000 -0.530725
v -0.191630 0.110638 -0.530725
v -0.110638 0.191630 -0.530725
v 0.000000 0.221275 -0.530725
v 0.053194 0.198521 -1.022720
v 0.062029 0.231495 1.022720
v 0.047845 0.178559 1.022720
v 0.047845 0.178560 0.024329
v 0.038299 0.142932 -1.022720
v 0.052485 0.195782 -0.879353
v 0.058971 0.220082 0.314704
v 0.055319 0.206453 -0.530725
v -0.053194 0.198521 -1.022720
v -0.062029 0.231495 1.022720
v -0.047845 0.178559 1.022720
v -0.047845 0.178560 0.024329
v -0.038299 0.142932 -1.022720
v -0.052475 0.195803 -0.879289
v -0.058971 0.220082 0.314704
v -0.055319 0.206453 -0.530725
v 0.000000 0.431227 -0.534353
v 0.000000 0.445835 0.311076
v -0.058971 0.430034 0.311076
v -0.055319 0.416405 -0.534353
v 0.058971 0.430034 0.311076
v 0.055319 0.416405 -0.534353
vn 0.2588 0.9658 -0.0167
vn 0.4999 0.8659 -0.0173
vn 0.8659 0.4999 -0.0173
vn 0.9999 -0.0000 -0.0173
vn 0.8659 -0.4999 -0.0173
vn 0.4999 -0.8659 -0.0173
vn -0.0000 -0.9999 -0.0173
vn -0.4999 -0.8659 -0.0173
vn -0.8659 -0.4999 -0.0173
vn -0.9999 -0.0000 -0.0173
vn -0.8659 0.4999 -0.0173
vn -0.5000 -0.8660 -0.0000
vn -0.7071 -0.7071 -0.0000
vn -0.4999 0.8659 -0.0173
vn -0.2588 0.9658 -0.0167
vn -0.0000 0.9999 -0.0173
vn -0.8054 0.4648 0.3678
vn -0.9300 -0.0004 0.3675
vn -0.9301 -0.0003 0.3674
vn -0.0000 -0.0000 1.0000
vn 0.9659 0.2588 -0.0000
vn -0.2588 0.9659 -0.0000
vn -0.9659 -0.2588 -0.0000
vn 0.9659 -0.2588 -0.0000
vn 0.8660 -0.5000 -0.0000
vn 0.5000 0.8660 -0.0000
vn 0.2588 0.9659 -0.0000
vn -0.9659 0.2588 -0.0000
vn -0.8660 0.5000 -0.0000
vn 0.5000 -0.8660 -0.0000
vn -0.2588 -0.9659 -0.0000
vn 0.7071 0.7071 -0.0000
vn -0.7071 0.7071 -0.0000
vn 0.2588 -0.9659 -0.0000
vn -0.0000 -0.0000 -1.0000
vn 0.4647 -0.8055 0.3676
vn 0.6608 -0.6601 0.3572
vn 0.8056 -0.4645 0.3677
vn -0.4648 -0.8055 0.3676
vn -0.2417 -0.9024 0.3566
vn -0.2418 -0.9024 0.3566
vn 0.8056 0.4649 0.3672
vn 0.6616 0.6599 0.3561
vn 0.4650 0.8053 0.3676
vn -0.4651 0.8055 0.3674
vn -0.6600 0.6616 0.3559
vn -0.8052 0.4652 0.3676
vn -0.0000 -0.9300 0.3675
vn 0.2418 -0.9024 0.3565
vn -0.8057 -0.4648 0.3671
vn -0.6615 -0.6600 0.3561
vn -0.4653 -0.8053 0.3675
vn 0.9301 0.0004 0.3674
vn 0.8057 0.4650 0.3671
vn -0.0002 0.9300 0.3675
vn -0.4654 0.8052 0.3674
vn -0.8056 -0.4649 0.3671
vn 0.9300 0.0001 0.3675
vn 0.4648 0.8054 0.3677
vn -0.0000 0.9300 0.3675
vn -0.8279 0.5608 -0.0005
vn -0.0011 -0.0015 -1.0000
vn 0.0005 -0.0006 -1.0000
vn 0.0008 0.0019 -1.0000
vn -0.0006 -0.0012 -1.0000
vn -0.0015 -0.0013 -1.0000
vn -0.0007 0.0020 -1.0000
vn 0.0002 0.0028 -1.0000
vn 0.0009 0.0013 -1.0000
vn 0.7075 0.7067 -0.0014
vn 0.7074 0.7068 -0.0014
vn 0.0012 -0.0025 -1.0000
vn -0.0007 0.0038 -1.0000
vn 0.0022 0.0041 -1.0000
vn -0.5851 -0.8110 0.0015
vn 0.0005 0.0020 -1.0000
vn -0.0002 -0.0006 -1.0000
vn 0.0020 -0.0000 -1.0000
vn -0.0006 0.0009 -1.0000
vn -0.7073 -0.7069 0.0014
vn -0.7072 -0.7071 0.0014
vn 0.0022 0.0008 -1.0000
vn 0.0060 -0.0010 -1.0000
vn -0.0012 0.0013 -1.0000
vn 0.0004 -0.0037 -1.0000
vn -0.0017 0.0003 -1.0000
vn -0.0034 0.0003 -1.0000
vn 0.0046 -0.0035 -1.0000
vn 0.0060 -0.0054 -1.0000
vn -0.0029 -0.0004 -1.0000
vn 0.5857 0.8106 -0.0015
vn -1.0000 -0.0005 0.0005
vn 0.7070 -0.7072 0.0007
vn 0.7064 -0.7078 0.0007
vn -0.0002 0.0011 -1.0000
vn 0.0025 -0.0055 -1.0000
vn 0.0023 -0.0046 -1.0000
vn -0.0001 -0.0029 -1.0000
vn -0.7070 -0.7072 0.0014
vn -0.0003 0.0054 -1.0000
vn -0.0008 0.0009 -1.0000
vn 0.0013 0.0025 -1.0000
vn -0.0012 0.0027 -1.0000
vn -0.0001 0.0037 -1.0000
vn -0.0025 0.0034 -1.0000
vn -0.0028 -0.0002 -1.0000
vn -0.0042 0.0027 -1.0000
vn -0.0031 -0.0006 -1.0000
vn 0.0006 -0.0038 -1.0000
vn 0.0026 -0.0101 -0.9999
vn 0.0002 -0.0019 -1.0000
vn -0.0004 -0.0007 -1.0000
vn -0.0021 -0.0015 -1.0000
vn -0.0010 -0.0006 -1.0000
vn -0.0003 0.0015 -1.0000
vn 0.0005 -0.0013 -1.0000
vn -0.0003 -0.0007 -1.0000
vn 0.0012 -0.0015 -1.0000
vn -1.0000 -0.0009 0.0005
vn 0.8284 -0.5601 0.0005
vn 0.7077 0.7065 -0.0014
vn -0.5603 0.8283 -0.0010
vn -0.7072 0.7070 -0.0007
vn -0.7071 0.7071 -0.0007
vn -0.8097 -0.5868 0.0013
vn -0.0000 -1.0000 0.0015
vn 1.0000 0.0012 -0.0005
vn 0.9659 0.2589 -0.0008
vn -0.7070 0.7072 -0.0007
vn -0.0004 1.0000 -0.0015
vn 0.7076 -0.7066 0.0007
vn 0.8103 0.5860 -0.0013
vn 0.9660 -0.2585 -0.0001
vn 1.0000 -0.0008 -0.0005
vn 0.5611 -0.8277 0.0010
vn -0.0000 0.0173 0.9999
vn 0.0046 0.0173 0.9998
vn -0.0046 0.0173 0.9998
vn 0.0001 -0.9300 0.3675
vn 0.4644 -0.8058 0.3675
vn -1.0000 -0.0001 -0.0043
vn 1.0000 -0.0001 -0.0043
vn -0.0000 -0.0173 -0.9999
vn -0.0046 -0.0173 -0.9998
vn 0.0046 -0.0173 -0.9998
vn 0.8053 -0.4651 0.3676
vn 0.0026 -0.0023 -1.0000
vn -0.0014 0.0021 -1.0000
vn -0.4562 0.7719 -0.4427
vn -0.7176 -0.0000 0.6964
vn -0.0062 0.0028 -1.0000
vn -0.0039 0.0014 -1.0000
vn 0.0014 0.0008 -1.0000
vn 0.0075 0.0005 -1.0000
vn 0.0014 -0.0012 -1.0000
vn -0.0009 -0.0000 -1.0000
vt 0.958333 1.000000
vt 0.916667 0.826928
vt 0.958333 0.826928
vt 0.916667 1.000000
vt 0.833333 0.826928
vt 0.833333 1.000000
vt 0.750000 0.826928
vt 0.750000 1.000000
vt 0.666667 0.826928
vt 0.666667 1.000000
vt 0.583333 0.826928
vt 0.583333 1.000000
vt 0.500000 0.826928
vt 0.500000 1.000000
vt 0.416667 0.826928
vt 0.416667 1.000000
vt 0.333333 0.826928
vt 0.333333 1.000000
vt 0.250000 0.826928
vt 0.250000 1.000000
vt 0.166667 0.826928
vt 0.342560 0.410318
vt 0.410318 0.342560
vt 0.166667 1.000000
vt 0.083333 0.826928
vt 0.041667 1.000000
vt 0.000000 0.826928
vt 0.041667 0.826928
vt 0.925796 0.148504
vt 0.952991 0.250000
vt 0.310000 0.473923
vt 0.296280 0.422719
vt 0.457846 0.370000
vt 0.370000 0.457846
vt 0.435119 0.250000
vt 0.410318 0.157440
vt 0.490000 0.250000
vt 0.370000 0.042154
vt 0.457846 0.130000
vt 0.250000 0.064881
vt 0.342560 0.089682
vt 0.157440 0.089682
vt 0.250000 0.010000
vt 0.042154 0.130000
vt 0.130000 0.042154
vt 0.064881 0.250000
vt 0.089682 0.157440
vt 0.089682 0.342560
vt 0.010000 0.250000
vt 0.130000 0.457846
vt 0.042154 0.370000
vt 0.250000 0.435119
vt 0.190000 0.473923
vt 0.203720 0.422719
vt 0.203720 0.422719
vt 0.157440 0.410318
vt 0.296280 0.422719
vt 0.750000 0.452991
vt 0.810000 0.473923
vt 0.800748 0.439393
vt 0.925796 0.351496
vt 0.870000 0.457846
vt 0.957846 0.370000
vt 0.990000 0.250000
vt 0.957846 0.130000
vt 0.851496 0.074204
vt 0.870000 0.042154
vt 0.750000 0.010000
vt 0.750000 0.047009
vt 0.630000 0.042154
vt 0.648504 0.074204
vt 0.574204 0.148504
vt 0.542154 0.130000
vt 0.510000 0.250000
vt 0.547009 0.250000
vt 0.542154 0.370000
vt 0.574204 0.351496
vt 0.648504 0.425796
vt 0.630000 0.457846
vt 0.690000 0.473923
vt 0.699252 0.439393
vt 0.611354 0.388646
vt 0.851496 0.425796
vt 0.611354 0.111354
vt 0.888646 0.111354
vt 0.699252 0.439393
vt 0.888646 0.388646
vt 0.620420 0.199252
vt 0.708317 0.208317
vt 0.659836 0.159836
vt 0.620420 0.300748
vt 0.666635 0.250000
vt 0.791683 0.208317
vt 0.879580 0.199252
vt 0.840164 0.159836
vt 0.750000 0.166635
vt 0.659836 0.340164
vt 0.699252 0.379580
vt 0.800748 0.120420
vt 0.840164 0.340164
vt 0.750000 0.333365
vt 0.791683 0.291683
vt 0.879580 0.300748
vt 0.833365 0.250000
vt 0.800748 0.379580
vt 0.708317 0.291683
vt 0.699252 0.120420
vt 0.750000 0.250000
vt 1.000000 0.826928
vt 0.166667 0.620266
vt 0.083333 0.620266
vt 0.250000 0.620266
vt 0.333333 0.620266
vt 0.416667 0.620266
vt 0.500000 0.620266
vt 0.583333 0.620266
vt 0.666667 0.620266
vt 0.750000 0.620266
vt 0.833333 0.620266
vt 0.916667 0.620266
vt 0.958333 0.620266
vt 0.916667 0.500000
vt 0.958333 0.500000
vt 0.833333 0.500000
vt 0.750000 0.500000
vt 0.666667 0.500000
vt 0.583333 0.500000
vt 0.500000 0.500000
vt 0.416667 0.500000
vt 0.333333 0.500000
vt 0.250000 0.500000
vt 0.166667 0.500000
vt 0.083333 0.500000
vt 0.041667 0.620266
vt 0.000000 0.500000
vt 0.041667 0.500000
vt 1.000000 0.500000
vt 0.250000 0.490000
vt 0.750000 0.490000
vt 0.000000 0.620266
vt 1.000000 0.620266
vt 0.083333 1.000000
vt 0.000000 1.000000
vt 1.000000 1.000000
s 1
usemtl Material.003
f 142/1/1 118/2/2 147/3/1
f 25/4/2 119/5/3 118/2/2
f 27/6/3 120/7/4 119/5/3
f 28/8/4 121/9/5 120/7/4
f 29/10/5 122/11/6 121/9/5
f 30/12/6 123/13/7 122/11/6
f 31/14/7 124/15/8 123/13/7
f 32/16/8 125/17/9 124/15/8
f 33/18/9 126/19/10 125/17/9
f 34/20/10 127/21/11 126/19/10
f 4/22/12 39/23/13 6/23/13
f 35/24/11 128/25/14 127/21/11
f 150/26/15 117/27/16 155/28/15
f 9/29/17 64/30/18 7/30/19
f 4/22/20 142/31/20 143/32/20
f 4/22/20 27/33/20 25/34/20
f 8/35/20 27/33/20 6/23/20
f 10/36/20 28/37/20 8/35/20
f 10/36/20 30/38/20 29/39/20
f 14/40/20 30/38/20 12/41/20
f 16/42/20 31/43/20 14/40/20
f 16/42/20 33/44/20 32/45/20
f 20/46/20 33/44/20 18/47/20
f 22/48/20 34/49/20 20/46/20
f 22/48/20 36/50/20 35/51/20
f 2/52/20 150/53/20 151/54/20
f 152/55/20 45/47/20 41/36/20
f 18/47/21 46/46/21 20/46/21
f 14/40/22 42/41/22 43/40/22
f 6/23/23 40/35/23 8/35/23
f 20/46/24 47/48/25 22/48/25
f 16/42/26 43/40/27 44/42/26
f 8/35/28 41/36/29 10/36/29
f 22/48/25 48/56/30 24/56/30
f 2/52/31 144/57/31 143/32/31
f 16/42/26 45/47/32 18/47/32
f 10/36/29 42/41/33 12/41/33
f 24/56/30 152/55/34 151/54/34
f 1/58/35 141/59/35 145/60/35
f 5/61/35 50/62/35 51/63/35
f 5/61/35 52/64/35 7/30/35
f 7/30/35 53/65/35 9/29/35
f 11/66/35 53/65/35 54/67/35
f 11/66/35 55/68/35 13/69/35
f 13/69/35 56/70/35 15/71/35
f 17/72/35 56/70/35 57/73/35
f 17/72/35 58/74/35 19/75/35
f 19/75/35 59/76/35 21/77/35
f 23/78/35 59/76/35 60/79/35
f 23/78/35 149/80/35 153/81/35
f 23/78/36 80/82/37 71/77/38
f 3/83/39 146/60/40 145/60/41
f 17/72/42 79/84/43 68/71/44
f 11/66/45 78/85/46 65/29/47
f 1/58/48 154/86/49 153/81/49
f 5/61/50 77/87/51 62/83/52
f 17/72/42 70/75/53 69/72/54
f 11/66/45 67/69/55 66/66/56
f 7/30/19 63/61/57 5/61/50
f 19/75/58 71/77/38 70/75/53
f 15/71/59 67/69/55 13/69/60
f 83/88/61 97/72/61 110/88/61
f 83/88/62 84/89/63 96/90/64
f 83/88/62 85/91/65 75/92/66
f 86/93/67 87/94/68 95/95/69
f 84/89/70 101/96/71 73/96/71
f 94/97/72 72/78/73 90/98/74
f 73/96/75 109/99/75 101/96/75
f 93/100/76 62/83/77 77/87/78
f 72/78/73 61/58/79 62/83/77
f 76/101/80 107/102/81 106/101/80
f 93/100/76 63/61/82 91/103/83
f 89/102/84 91/103/83 74/104/85
f 89/102/84 92/105/86 93/100/76
f 87/94/68 63/61/82 64/30/87
f 88/106/88 90/98/74 76/101/89
f 85/91/65 88/106/88 75/92/66
f 71/77/90 94/97/72 85/91/65
f 90/98/91 106/101/91 76/101/91
f 85/91/92 110/88/92 112/91/92
f 88/106/93 111/92/94 75/92/94
f 95/95/69 65/29/95 78/85/96
f 66/66/97 95/95/69 78/85/96
f 82/99/98 86/93/67 95/95/69
f 89/102/81 104/104/99 107/102/81
f 81/107/100 84/89/63 73/96/101
f 68/71/102 96/90/64 81/107/100
f 69/72/103 96/90/64 79/84/104
f 68/71/102 82/99/98 66/66/97
f 109/99/105 100/107/105 101/96/105
f 116/108/106 106/101/107 107/102/108
f 113/94/109 104/104/109 114/103/109
f 106/101/110 108/98/110 115/105/110
f 116/108/106 104/104/111 103/93/112
f 101/96/113 116/108/106 103/93/112
f 102/89/114 105/106/115 116/108/106
f 98/75/116 112/91/117 110/88/118
f 91/103/119 113/94/119 114/103/119
f 91/103/120 104/104/120 74/104/120
f 75/92/121 102/89/70 84/89/70
f 92/105/122 106/101/122 115/105/122
f 74/104/123 103/93/124 104/104/123
f 71/77/125 112/91/125 99/77/125
f 92/105/126 108/98/126 90/98/126
f 70/75/127 97/72/128 69/72/128
f 86/93/124 101/96/129 103/93/124
f 82/99/130 100/107/130 109/99/130
f 76/101/131 105/106/93 88/106/93
f 74/104/132 113/94/132 87/94/132
f 71/77/133 98/75/134 70/75/127
f 73/96/135 100/107/135 81/107/135
f 117/109/136 161/3/137 158/109/136
f 138/110/11 128/25/14 139/111/14
f 126/19/10 138/110/11 137/112/10
f 125/17/9 137/112/10 136/113/9
f 135/114/8 125/17/9 136/113/9
f 123/13/7 135/114/8 134/115/7
f 122/11/6 134/115/7 133/116/6
f 132/117/5 122/11/6 133/116/6
f 120/7/4 132/117/5 131/118/4
f 119/5/3 131/118/4 130/119/3
f 129/120/2 119/5/3 130/119/3
f 147/3/1 129/120/2 148/121/1
f 148/121/1 50/122/2 141/123/1
f 129/120/2 51/124/3 50/122/2
f 130/119/3 52/125/4 51/124/3
f 131/118/4 53/126/5 52/125/4
f 132/117/5 54/127/6 53/126/5
f 133/116/6 55/128/7 54/127/6
f 134/115/7 56/129/8 55/128/7
f 135/114/8 57/130/9 56/129/8
f 136/113/9 58/131/10 57/130/9
f 137/112/10 59/132/11 58/131/10
f 138/110/11 60/133/14 59/132/11
f 156/134/15 49/135/16 149/136/15
f 49/137/16 148/121/1 141/123/1
f 117/27/136 159/28/138 155/28/138
f 1/58/48 146/60/40 61/58/139
f 3/83/35 141/59/35 50/62/35
f 143/32/31 37/22/12 4/22/12
f 2/52/20 142/31/20 26/138/20
f 117/109/16 142/1/1 147/3/1
f 60/133/14 156/134/15 149/136/15
f 139/111/14 155/28/15 156/134/15
f 23/78/36 154/86/49 72/78/140
f 1/58/35 149/80/35 49/139/35
f 151/54/34 38/52/34 2/52/34
f 24/56/20 150/53/20 36/50/20
f 128/25/14 150/26/15 155/28/15
f 159/28/15 157/140/16 160/134/15
f 157/141/16 161/3/1 162/121/1
f 155/28/141 160/134/141 156/134/141
f 147/3/142 162/121/142 161/3/142
f 140/141/143 162/121/144 148/121/144
f 140/140/143 160/134/145 157/140/143
f 142/1/1 25/4/2 118/2/2
f 25/4/2 27/6/3 119/5/3
f 27/6/3 28/8/4 120/7/4
f 28/8/4 29/10/5 121/9/5
f 29/10/5 30/12/6 122/11/6
f 30/12/6 31/14/7 123/13/7
f 31/14/7 32/16/8 124/15/8
f 32/16/8 33/18/9 125/17/9
f 33/18/9 34/20/10 126/19/10
f 34/20/10 35/24/11 127/21/11
f 4/22/12 37/22/12 39/23/13
f 35/24/11 36/142/14 128/25/14
f 150/26/15 26/143/16 117/27/16
f 9/29/17 65/29/47 64/30/18
f 4/22/20 25/34/20 142/31/20
f 4/22/20 6/23/20 27/33/20
f 8/35/20 28/37/20 27/33/20
f 10/36/20 29/39/20 28/37/20
f 10/36/20 12/41/20 30/38/20
f 14/40/20 31/43/20 30/38/20
f 16/42/20 32/45/20 31/43/20
f 16/42/20 18/47/20 33/44/20
f 20/46/20 34/49/20 33/44/20
f 22/48/20 35/51/20 34/49/20
f 22/48/20 24/56/20 36/50/20
f 2/52/20 26/138/20 150/53/20
f 39/23/20 37/22/20 144/57/20
f 144/57/20 38/52/20 152/55/20
f 152/55/20 48/56/20 47/48/20
f 47/48/20 46/46/20 45/47/20
f 45/47/20 44/42/20 43/40/20
f 43/40/20 42/41/20 41/36/20
f 41/36/20 40/35/20 39/23/20
f 39/23/20 144/57/20 152/55/20
f 152/55/20 47/48/20 45/47/20
f 45/47/20 43/40/20 41/36/20
f 41/36/20 39/23/20 152/55/20
f 18/47/21 45/47/21 46/46/21
f 14/40/22 12/41/22 42/41/22
f 6/23/23 39/23/23 40/35/23
f 20/46/24 46/46/24 47/48/25
f 16/42/26 14/40/27 43/40/27
f 8/35/28 40/35/28 41/36/29
f 22/48/25 47/48/25 48/56/30
f 2/52/31 38/52/31 144/57/31
f 16/42/26 44/42/26 45/47/32
f 10/36/29 41/36/29 42/41/33
f 24/56/30 48/56/30 152/55/34
f 1/58/35 49/139/35 141/59/35
f 5/61/35 3/83/35 50/62/35
f 5/61/35 51/63/35 52/64/35
f 7/30/35 52/64/35 53/65/35
f 11/66/35 9/29/35 53/65/35
f 11/66/35 54/67/35 55/68/35
f 13/69/35 55/68/35 56/70/35
f 17/72/35 15/71/35 56/70/35
f 17/72/35 57/73/35 58/74/35
f 19/75/35 58/74/35 59/76/35
f 23/78/35 21/77/35 59/76/35
f 23/78/35 60/79/35 149/80/35
f 71/77/38 21/77/146 23/78/36
f 23/78/36 72/78/140 80/82/37
f 3/83/39 62/83/52 146/60/40
f 68/71/44 15/71/59 17/72/42
f 17/72/42 69/72/54 79/84/43
f 65/29/47 9/29/17 11/66/45
f 11/66/45 66/66/56 78/85/46
f 1/58/48 61/58/139 154/86/49
f 62/83/52 3/83/39 5/61/50
f 5/61/50 63/61/57 77/87/51
f 17/72/42 19/75/58 70/75/53
f 11/66/45 13/69/60 67/69/55
f 7/30/19 64/30/18 63/61/57
f 19/75/58 21/77/146 71/77/38
f 15/71/59 68/71/44 67/69/55
f 83/88/61 69/72/61 97/72/61
f 83/88/62 75/92/66 84/89/63
f 86/93/67 74/104/147 87/94/68
f 84/89/70 102/89/70 101/96/71
f 94/97/72 80/82/148 72/78/73
f 73/96/75 82/99/75 109/99/75
f 93/100/76 92/105/86 62/83/77
f 92/105/86 90/98/74 72/78/73
f 72/78/73 154/86/149 61/58/79
f 61/58/150 146/60/150 62/83/150
f 62/83/77 92/105/86 72/78/73
f 76/101/80 89/102/81 107/102/81
f 93/100/76 77/87/78 63/61/82
f 89/102/84 93/100/76 91/103/83
f 89/102/84 76/101/151 92/105/86
f 64/30/87 65/29/95 87/94/68
f 87/94/68 91/103/83 63/61/82
f 88/106/88 94/97/72 90/98/74
f 85/91/65 94/97/72 88/106/88
f 71/77/90 80/82/148 94/97/72
f 90/98/91 108/98/91 106/101/91
f 85/91/92 83/88/92 110/88/92
f 88/106/93 105/106/93 111/92/94
f 95/95/69 87/94/68 65/29/95
f 66/66/97 82/99/98 95/95/69
f 82/99/98 73/96/152 86/93/67
f 89/102/81 74/104/99 104/104/99
f 81/107/100 96/90/64 84/89/63
f 68/71/102 79/84/104 96/90/64
f 69/72/103 83/88/62 96/90/64
f 66/66/97 67/69/153 68/71/102
f 68/71/102 81/107/100 82/99/98
f 116/108/106 105/106/115 106/101/107
f 116/108/106 107/102/108 104/104/111
f 101/96/113 102/89/114 116/108/106
f 102/89/114 111/92/154 105/106/115
f 110/88/118 97/72/155 98/75/116
f 98/75/116 99/77/156 112/91/117
f 91/103/119 87/94/119 113/94/119
f 91/103/120 114/103/120 104/104/120
f 75/92/121 111/92/121 102/89/70
f 92/105/122 76/101/122 106/101/122
f 74/104/123 86/93/124 103/93/124
f 71/77/125 85/91/125 112/91/125
f 92/105/126 115/105/126 108/98/126
f 70/75/127 98/75/134 97/72/128
f 86/93/124 73/96/129 101/96/129
f 82/99/130 81/107/130 100/107/130
f 76/101/131 106/101/131 105/106/93
f 74/104/132 104/104/132 113/94/132
f 71/77/133 99/77/133 98/75/134
f 73/96/135 101/96/135 100/107/135
f 117/109/136 147/3/137 161/3/137
f 138/110/11 127/21/11 128/25/14
f 126/19/10 127/21/11 138/110/11
f 125/17/9 126/19/10 137/112/10
f 135/114/8 124/15/8 125/17/9
f 123/13/7 124/15/8 135/114/8
f 122/11/6 123/13/7 134/115/7
f 132/117/5 121/9/5 122/11/6
f 120/7/4 121/9/5 132/117/5
f 119/5/3 120/7/4 131/118/4
f 129/120/2 118/2/2 119/5/3
f 147/3/1 118/2/2 129/120/2
f 148/121/1 129/120/2 50/122/2
f 129/120/2 130/119/3 51/124/3
f 130/119/3 131/118/4 52/125/4
f 131/118/4 132/117/5 53/126/5
f 132/117/5 133/116/6 54/127/6
f 133/116/6 134/115/7 55/128/7
f 134/115/7 135/114/8 56/129/8
f 135/114/8 136/113/9 57/130/9
f 136/113/9 137/112/10 58/131/10
f 137/112/10 138/110/11 59/132/11
f 138/110/11 139/111/14 60/133/14
f 156/134/15 140/140/16 49/135/16
f 49/137/16 140/141/16 148/121/1
f 117/27/136 158/27/136 159/28/138
f 1/58/48 145/60/41 146/60/40
f 3/83/35 145/60/35 141/59/35
f 143/32/31 144/57/31 37/22/12
f 2/52/20 143/32/20 142/31/20
f 117/109/16 26/144/16 142/1/1
f 60/133/14 139/111/14 156/134/15
f 139/111/14 128/25/14 155/28/15
f 23/78/36 153/81/49 154/86/49
f 1/58/35 153/81/35 149/80/35
f 151/54/34 152/55/34 38/52/34
f 24/56/20 151/54/20 150/53/20
f 128/25/14 36/142/14 150/26/15
f 159/28/15 158/27/16 157/140/16
f 157/141/16 158/109/16 161/3/1
f 155/28/141 159/28/141 160/134/141
f 147/3/142 148/121/142 162/121/142
f 140/141/143 157/141/143 162/121/144
f 140/140/143 156/134/145 160/134/145
